<svg width="143" height="26" viewBox="0 0 143 26" fill="none" xmlns="http://www.w3.org/2000/svg">
<rect y="1.5" width="20" height="20" rx="10" fill="#CC723F"/>
<path d="M29.1861 5.27521V17.781C29.1861 20.6695 29.9083 22.6389 31.3853 23H24.7878C26.2648 22.6389 26.987 20.6695 26.987 17.781V5.27521C26.987 2.38673 26.2648 0.417307 24.7878 0.0562451H31.3853C29.9083 0.417307 29.1861 2.38673 29.1861 5.27521ZM48.2239 17.781C48.6834 20.7023 49.7666 22.6389 51.2437 23H44.6133C46.0903 22.6389 46.517 20.8008 46.0575 17.781C44.8102 10.1659 43.8255 7.11334 41.4294 7.11334C40.1493 7.11334 38.3439 8.68887 37.2936 10.7896V17.781C37.2936 20.6695 38.0157 22.6389 39.4928 23H32.8952C34.3723 22.6389 35.0944 20.6695 35.0944 17.781V11.8728C35.0944 8.98429 34.3723 7.01487 32.8952 6.62098H37.2936V9.8377C38.5081 7.63852 40.4118 6.25992 42.1843 6.25992C45.6965 6.25992 46.6483 8.13087 48.2239 17.781ZM65.9743 17.781C66.0071 20.6695 66.7293 22.6389 68.2063 23H63.7751V19.7833C62.4293 25.232 55.3066 24.2145 52.3525 18.7001C50.1205 14.5315 51.8929 9.31252 56.1272 7.17899C58.6218 5.89886 61.4446 5.99733 63.7751 7.14616V5.27521C63.7751 2.38673 63.053 0.417307 61.5759 0.0562451H65.9743V17.781ZM63.7751 18.2406V9.31252C61.6088 7.17899 58.6875 6.39122 56.3241 7.57287C53.1731 9.18123 52.2868 13.7109 54.3219 17.7154C57.1119 23.2298 62.9874 24.674 63.7751 18.2406ZM73.9317 17.781C73.9317 20.6695 74.6539 22.6389 76.1309 23H69.5334C71.0104 22.6389 71.7326 20.6695 71.7326 17.781V11.8728C71.7326 8.98429 71.0104 7.01487 69.5334 6.62098H73.9317V17.781ZM73.0783 5.24239C72.1593 5.40651 71.3059 4.78286 71.1746 3.86379C71.0104 2.94473 71.6341 2.09131 72.5532 1.96002C73.4394 1.7959 74.2928 2.41955 74.4569 3.33861C74.5882 4.22485 73.9974 5.11109 73.0783 5.24239ZM92.2543 10.9537C94.5191 15.1223 92.7138 20.3085 88.5124 22.4748C86.0178 23.7221 83.1949 23.6565 80.8645 22.5076L78.6653 23V5.27521C78.6653 2.38673 77.9432 0.417307 76.4661 0.0562451H80.8645V9.73923C82.2431 4.4218 89.333 5.47215 92.2543 10.9537ZM88.2826 22.0809C91.4337 20.4726 92.3528 15.9429 90.3177 11.9384C87.5605 6.45686 81.7179 4.9798 80.8645 11.2491V20.3413C83.0308 22.4748 85.9521 23.2626 88.2826 22.0809ZM98.5472 17.781C98.5472 20.6695 99.2693 22.6389 100.746 23H94.1488C95.6259 22.6389 96.348 20.6695 96.348 17.781V5.27521C96.348 2.38673 95.6259 0.417307 94.1488 0.0562451H98.5472V17.781ZM106.467 17.781C106.467 20.6695 107.189 22.6389 108.666 23H102.069C103.546 22.6389 104.268 20.6695 104.268 17.781V11.8728C104.268 8.98429 103.546 7.01487 102.069 6.62098H106.467V17.781ZM105.614 5.24239C104.694 5.40651 103.841 4.78286 103.71 3.86379C103.546 2.94473 104.169 2.09131 105.088 1.96002C105.975 1.7959 106.828 2.41955 106.992 3.33861C107.123 4.22485 106.533 5.11109 105.614 5.24239ZM132.339 13.2185C142.219 15.1223 141.825 20.6039 137.525 22.6718C133.75 24.4771 127.317 23.4267 124.297 14.9254C121.277 6.32557 116.222 5.73474 113.531 7.3431C111.233 8.7217 111.66 12.3651 116.091 13.2185C126.004 15.1223 125.61 20.6039 121.277 22.6718C117.667 24.4114 111.89 22.8031 110.347 21.7527L111.562 20.4069L112.579 19.2909C112.054 20.2756 112.316 21.2603 114.778 22.2451C117.043 23.0656 119.603 23.2298 121.146 22.3764C124.035 20.8008 122.656 16.5009 115.599 15.2864C107.951 13.9078 110.249 8.62323 113.367 7.08051C117.076 5.24239 123.444 6.29275 126.201 14.8597C128.925 23.4267 134.965 23.6893 137.361 22.3764C140.282 20.8336 138.871 16.5009 131.847 15.2864C124.166 13.9078 126.496 8.62323 129.615 7.08051C130.796 6.48969 132.109 6.29275 133.488 6.29275C135.588 6.29275 137.525 6.9164 139.101 7.99958L138.575 8.55758L136.901 10.3629C137.427 9.37817 137.197 8.36064 134.768 7.37593C133.028 6.68663 131.19 6.55533 129.746 7.3431C127.383 8.62323 127.875 12.3651 132.339 13.2185Z" fill="black"/>
</svg>
