<svg width="151" height="26" viewBox="0 0 151 26" fill="none" xmlns="http://www.w3.org/2000/svg">
<rect y="1.5" width="20" height="20" rx="10" fill="#CC723F"/>
<path d="M29.1861 5.27521V17.781C29.1861 20.6695 29.9083 22.6389 31.3853 23H24.7878C26.2648 22.6389 26.987 20.6695 26.987 17.781V5.27521C26.987 2.38673 26.2648 0.417307 24.7878 0.0562451H31.3853C29.9083 0.417307 29.1861 2.38673 29.1861 5.27521ZM48.2239 17.781C48.6834 20.7023 49.7666 22.6389 51.2437 23H44.6133C46.0903 22.6389 46.517 20.8008 46.0575 17.781C44.8102 10.1659 43.8255 7.11334 41.4294 7.11334C40.1493 7.11334 38.3439 8.68887 37.2936 10.7896V17.781C37.2936 20.6695 38.0157 22.6389 39.4928 23H32.8952C34.3723 22.6389 35.0944 20.6695 35.0944 17.781V11.8728C35.0944 8.98429 34.3723 7.01487 32.8952 6.62098H37.2936V9.8377C38.5081 7.63852 40.4118 6.25992 42.1843 6.25992C45.6965 6.25992 46.6483 8.13087 48.2239 17.781ZM65.9743 17.781C66.0071 20.6695 66.7293 22.6389 68.2063 23H63.7751V19.7833C62.4293 25.232 55.3066 24.2145 52.3525 18.7001C50.1205 14.5315 51.8929 9.31252 56.1272 7.17899C58.6218 5.89886 61.4446 5.99733 63.7751 7.14616V5.27521C63.7751 2.38673 63.053 0.417307 61.5759 0.0562451H65.9743V17.781ZM63.7751 18.2406V9.31252C61.6088 7.17899 58.6875 6.39122 56.3241 7.57287C53.1731 9.18123 52.2868 13.7109 54.3219 17.7154C57.1119 23.2298 62.9874 24.674 63.7751 18.2406ZM73.9317 17.781C73.9317 20.6695 74.6539 22.6389 76.1309 23H69.5334C71.0104 22.6389 71.7326 20.6695 71.7326 17.781V11.8728C71.7326 8.98429 71.0104 7.01487 69.5334 6.62098H73.9317V17.781ZM73.0783 5.24239C72.1593 5.40651 71.3059 4.78286 71.1746 3.86379C71.0104 2.94473 71.6341 2.09131 72.5532 1.96002C73.4394 1.7959 74.2928 2.41955 74.4569 3.33861C74.5882 4.22485 73.9974 5.11109 73.0783 5.24239ZM81.8492 17.781C81.8492 20.6695 82.5713 22.6389 84.0484 23H77.4508C78.9279 22.6389 79.65 20.6695 79.65 17.781V11.8728C79.65 8.98429 78.9279 7.01487 77.4508 6.62098H81.8492V17.781ZM80.9958 5.24239C80.0767 5.40651 79.2233 4.78286 79.092 3.86379C78.9279 2.94473 79.5515 2.09131 80.4706 1.96002C81.3568 1.7959 82.2102 2.41955 82.3744 3.33861C82.5056 4.22485 81.9148 5.11109 80.9958 5.24239ZM100.172 10.9537C102.437 15.1223 100.631 20.3085 96.4298 22.4748C93.9352 23.7221 91.1124 23.6565 88.7819 22.5076L86.5827 23V5.27521C86.5827 2.38673 85.8606 0.417307 84.3835 0.0562451H88.7819V9.73923C90.1605 4.4218 97.2504 5.47215 100.172 10.9537ZM96.2 22.0809C99.3511 20.4726 100.27 15.9429 98.2351 11.9384C95.4779 6.45686 89.6353 4.9798 88.7819 11.2491V20.3413C90.9483 22.4748 93.8696 23.2626 96.2 22.0809ZM106.465 17.781C106.465 20.6695 107.187 22.6389 108.664 23H102.066C103.543 22.6389 104.265 20.6695 104.265 17.781V5.27521C104.265 2.38673 103.543 0.417307 102.066 0.0562451H106.465V17.781ZM114.384 17.781C114.384 20.6695 115.106 22.6389 116.584 23H109.986C111.463 22.6389 112.185 20.6695 112.185 17.781V11.8728C112.185 8.98429 111.463 7.01487 109.986 6.62098H114.384V17.781ZM113.531 5.24239C112.612 5.40651 111.758 4.78286 111.627 3.86379C111.463 2.94473 112.087 2.09131 113.006 1.96002C113.892 1.7959 114.745 2.41955 114.91 3.33861C115.041 4.22485 114.45 5.11109 113.531 5.24239ZM140.256 13.2185C150.136 15.1223 149.742 20.6039 145.442 22.6718C141.668 24.4771 135.234 23.4267 132.215 14.9254C129.195 6.32557 124.14 5.73474 121.448 7.3431C119.151 8.7217 119.577 12.3651 124.009 13.2185C133.921 15.1223 133.527 20.6039 129.195 22.6718C125.584 24.4114 119.807 22.8031 118.264 21.7527L119.479 20.4069L120.496 19.2909C119.971 20.2756 120.234 21.2603 122.696 22.2451C124.961 23.0656 127.521 23.2298 129.063 22.3764C131.952 20.8008 130.573 16.5009 123.516 15.2864C115.868 13.9078 118.166 8.62323 121.284 7.08051C124.993 5.24239 131.361 6.29275 134.118 14.8597C136.843 23.4267 142.882 23.6893 145.278 22.3764C148.2 20.8336 146.788 16.5009 139.764 15.2864C132.083 13.9078 134.414 8.62323 137.532 7.08051C138.714 6.48969 140.027 6.29275 141.405 6.29275C143.506 6.29275 145.442 6.9164 147.018 7.99958L146.493 8.55758L144.819 10.3629C145.344 9.37817 145.114 8.36064 142.685 7.37593C140.946 6.68663 139.108 6.55533 137.663 7.3431C135.3 8.62323 135.792 12.3651 140.256 13.2185Z" fill="black"/>
</svg>
